<svg width="24" height="32" viewBox="0 0 24 32" fill="none" xmlns="http://www.w3.org/2000/svg">
<path d="M21 11H19.5V8C19.5 3.86 16.14 0.5 12 0.5C7.86 0.5 4.5 3.86 4.5 8V11H3C1.35 11 0 12.35 0 14V29C0 30.65 1.35 32 3 32H21C22.65 32 24 30.65 24 29V14C24 12.35 22.65 11 21 11ZM12 24.5C10.35 24.5 9 23.15 9 21.5C9 19.85 10.35 18.5 12 18.5C13.65 18.5 15 19.85 15 21.5C15 23.15 13.65 24.5 12 24.5ZM16.65 11H7.35V8C7.35 5.435 9.435 3.35 12 3.35C14.565 3.35 16.65 5.435 16.65 8V11Z" fill="url(#paint0_linear_67_597)"/>
<defs>
<linearGradient id="paint0_linear_67_597" x1="-2.75598" y1="37.4783" x2="28.5727" y2="36.3938" gradientUnits="userSpaceOnUse">
<stop stop-color="#2E00B1"/>
<stop offset="0.484375" stop-color="#8100BD"/>
<stop offset="1" stop-color="#A400BE"/>
</linearGradient>
</defs>
</svg>

