<svg width="24" height="34" fill="none" xmlns="http://www.w3.org/2000/svg"><path d="M12 8v4.5l6-6-6-6V5C5.37 5 0 10.37 0 17c0 2.355.69 4.545 1.86 6.39l2.19-2.19A8.806 8.806 0 0 1 3 17c0-4.965 4.035-9 9-9Zm10.14 2.61-2.19 2.19A9.027 9.027 0 0 1 21 17c0 4.965-4.035 9-9 9v-4.5l-6 6 6 6V29c6.63 0 12-5.37 12-12 0-2.355-.69-4.545-1.86-6.39Z" fill="url(#a)"/><defs><linearGradient id="a" x1="-2.756" y1="39.239" x2="28.576" y2="38.204" gradientUnits="userSpaceOnUse"><stop stop-color="#2E00B1"/><stop offset=".484" stop-color="#8100BD"/><stop offset="1" stop-color="#A400BE"/></linearGradient></defs></svg>