<svg width="24" height="32" fill="none" xmlns="http://www.w3.org/2000/svg"><path d="M21 11h-1.5V8c0-4.14-3.36-7.5-7.5-7.5C7.86.5 4.5 3.86 4.5 8v3H3c-1.65 0-3 1.35-3 3v15c0 1.65 1.35 3 3 3h18c1.65 0 3-1.35 3-3V14c0-1.65-1.35-3-3-3Zm-9 13.5c-1.65 0-3-1.35-3-3s1.35-3 3-3 3 1.35 3 3-1.35 3-3 3ZM16.65 11h-9.3V8A4.654 4.654 0 0 1 12 3.35 4.654 4.654 0 0 1 16.65 8v3Z" fill="url(#a)"/><defs><linearGradient id="a" x1="-2.756" y1="37.478" x2="28.573" y2="36.394" gradientUnits="userSpaceOnUse"><stop stop-color="#2E00B1"/><stop offset=".484" stop-color="#8100BD"/><stop offset="1" stop-color="#A400BE"/></linearGradient></defs></svg>