
<svg xmlns="http://www.w3.org/2000/svg"
xmlns:xlink="http://www.w3.org/1999/xlink" version="1.1">

  <symbol id="telegram" viewBox="0 0 46 46">
    <circle cx="23" cy="23" r="23" fill="white"/>
    <path d="M31.665 14.7169L13.935 21.5539C12.725 22.0399 12.732 22.7149 13.713 23.0159L18.265 24.4359L28.797 17.7909C29.295 17.4879 29.75 17.6509 29.376 17.9829L20.843 25.6839H20.841L20.843 25.6849L20.529 30.3769C20.989 30.3769 21.192 30.1659 21.45 29.9169L23.661 27.7669L28.26 31.1639C29.108 31.6309 29.717 31.3909 29.928 30.3789L32.947 16.1509C33.256 14.9119 32.474 14.3509 31.665 14.7169V14.7169Z"/>
  </symbol>

  <symbol id="twitter" viewBox="0 0 46 46"> 
    <circle cx="23" cy="23" r="23" fill="white"/>
    <path d="M34.643 15.937C33.808 16.307 32.911 16.557 31.968 16.67C32.941 16.0877 33.669 15.1714 34.016 14.092C33.1019 14.6349 32.1014 15.0172 31.058 15.222C30.3564 14.4728 29.4271 13.9763 28.4143 13.8094C27.4016 13.6426 26.3621 13.8147 25.4572 14.2992C24.5524 14.7837 23.8328 15.5533 23.4102 16.4887C22.9875 17.424 22.8855 18.4727 23.12 19.472C21.2677 19.379 19.4556 18.8975 17.8014 18.0589C16.1472 17.2202 14.6879 16.0431 13.518 14.604C13.118 15.294 12.888 16.094 12.888 16.946C12.8876 17.713 13.0764 18.4682 13.4379 19.1447C13.7993 19.8212 14.3222 20.398 14.96 20.824C14.2203 20.8004 13.4969 20.6005 12.85 20.241V20.301C12.8499 21.3767 13.222 22.4193 13.9032 23.252C14.5843 24.0846 15.5326 24.6559 16.587 24.869C15.9008 25.0547 15.1813 25.082 14.483 24.949C14.7805 25.8746 15.36 26.684 16.1404 27.2639C16.9208 27.8438 17.8629 28.1651 18.835 28.183C17.1848 29.4784 15.1469 30.181 13.049 30.178C12.6774 30.1781 12.3061 30.1564 11.937 30.113C14.0665 31.4821 16.5454 32.2088 19.077 32.206C27.647 32.206 32.332 25.108 32.332 18.952C32.332 18.752 32.327 18.55 32.318 18.35C33.2293 17.6909 34.0159 16.8749 34.641 15.94L34.643 15.937V15.937Z"/>
  </symbol>

</svg>

